# xmcd
#
# Track frame offsets: 
#        150
#        32270
#        55058
#        85709
#        119969
#        138649
#        173322
#        187322
#        230476
#        245060
#        273398
#        303480
#
# Disc length: 4428 seconds
#
# Revision: 5
# Processed by: cddbd v1.5.2PL0 Copyright (c) Steve Scherf et al.
# Submitted via: ExactAudioCopy v0.95b4
#
DISCID=a7114a0c
DTITLE=Various Artist - Nu Dance Traxx Volume 78 (December 2000)h
DYEAR=2000
DGENRE=House
TTITLE0=Afro Medusa - Pasilda (Knee Deep Club Mix)
TTITLE1=Modjo - Lady (Hear Me Tonight) (Club Mix)
TTITLE2=Flickman - Sound Of Bamboo
TTITLE3=Web - Lovin' Times
TTITLE4=Moca and Deanna - Higher
TTITLE5=Aguagen - You Are So Quiet (Extended Mix)
TTITLE6=Lock 'N' Load - Blow Ya Mind
TTITLE7=Destiny's Child - Independent Women (Calderone Club Mix)
TTITLE8=Perfect Phase and Those 2 - Get Wicked
TTITLE9=Crazy Drummer - Party Drums (Extended)
TTITLE10=Ricky Martin - She Bangs (Obadam's English Afro Bang Ext Edit
TTITLE10=)
TTITLE11=Bar Kays - Freakshow On The Dancefloor (Extended Edit)
EXTD=
EXTT0=
EXTT1=
EXTT2=
EXTT3=
EXTT4=
EXTT5=
EXTT6=
EXTT7=
EXTT8=
EXTT9=
EXTT10=
EXTT11=
PLAYORDER=
